<svg xmlns="http://www.w3.org/2000/svg" xmlns:xlink="http://www.w3.org/1999/xlink" width="300" zoomAndPan="magnify" viewBox="0 0 224.87999 33.749998" height="45" preserveAspectRatio="xMidYMid meet" version="1.0"><defs><g/><clipPath id="b02fd16866"><path d="M 23.296875 3.484375 L 52.230469 3.484375 L 52.230469 18.660156 L 23.296875 18.660156 Z M 23.296875 3.484375 " clip-rule="nonzero"/></clipPath><clipPath id="3ebd646a37"><path d="M 42.585938 4.316406 C 41.101562 3.8125 39.414062 3.484375 37.761719 3.484375 C 36.105469 3.484375 34.515625 3.765625 33.046875 4.269531 C 33.015625 4.285156 32.984375 4.285156 32.953125 4.300781 C 27.441406 6.320312 23.382812 11.644531 23.304688 17.417969 L 23.304688 18.660156 L 52.230469 18.660156 L 52.230469 17.417969 C 52.152344 11.613281 48.15625 6.289062 42.585938 4.316406 Z M 42.585938 4.316406 " clip-rule="nonzero"/></clipPath><clipPath id="cc7672200c"><path d="M 0.296875 0.484375 L 29.230469 0.484375 L 29.230469 15.660156 L 0.296875 15.660156 Z M 0.296875 0.484375 " clip-rule="nonzero"/></clipPath><clipPath id="4a630f3825"><path d="M 19.585938 1.316406 C 18.101562 0.8125 16.414062 0.484375 14.761719 0.484375 C 13.105469 0.484375 11.515625 0.765625 10.046875 1.269531 C 10.015625 1.285156 9.984375 1.285156 9.953125 1.300781 C 4.441406 3.320312 0.382812 8.644531 0.304688 14.417969 L 0.304688 15.660156 L 29.230469 15.660156 L 29.230469 14.417969 C 29.152344 8.613281 25.15625 3.289062 19.585938 1.316406 Z M 19.585938 1.316406 " clip-rule="nonzero"/></clipPath><clipPath id="cc2ab56e82"><rect x="0" width="30" y="0" height="16"/></clipPath><clipPath id="6bf82cf48c"><path d="M 28.226562 1.800781 L 47.347656 1.800781 L 47.347656 12.042969 L 28.226562 12.042969 Z M 28.226562 1.800781 " clip-rule="nonzero"/></clipPath><clipPath id="a7a61a442e"><path d="M 42.207031 1.800781 C 45.035156 1.800781 47.328125 4.09375 47.328125 6.921875 C 47.328125 9.75 45.035156 12.042969 42.207031 12.042969 L 33.347656 12.042969 C 30.519531 12.042969 28.226562 9.75 28.226562 6.921875 C 28.226562 4.09375 30.519531 1.800781 33.347656 1.800781 Z M 42.207031 1.800781 " clip-rule="nonzero"/></clipPath><clipPath id="5e8ca13af9"><path d="M 0.226562 0.800781 L 19.347656 0.800781 L 19.347656 11.042969 L 0.226562 11.042969 Z M 0.226562 0.800781 " clip-rule="nonzero"/></clipPath><clipPath id="a1b191ccbc"><path d="M 14.207031 0.800781 C 17.035156 0.800781 19.328125 3.09375 19.328125 5.921875 C 19.328125 8.75 17.035156 11.042969 14.207031 11.042969 L 5.347656 11.042969 C 2.519531 11.042969 0.226562 8.75 0.226562 5.921875 C 0.226562 3.09375 2.519531 0.800781 5.347656 0.800781 Z M 14.207031 0.800781 " clip-rule="nonzero"/></clipPath><clipPath id="2b9da87fca"><rect x="0" width="20" y="0" height="12"/></clipPath><clipPath id="7681a59c56"><path d="M 24.484375 4.726562 L 51.042969 4.726562 L 51.042969 17.753906 L 24.484375 17.753906 Z M 24.484375 4.726562 " clip-rule="nonzero"/></clipPath><clipPath id="122da8eab2"><path d="M 42.1875 5.464844 C 40.824219 5.019531 39.277344 4.726562 37.757812 4.726562 C 36.238281 4.726562 34.777344 4.976562 33.429688 5.421875 C 33.402344 5.433594 33.375 5.433594 33.34375 5.449219 C 28.285156 7.226562 24.558594 11.914062 24.488281 16.988281 L 24.488281 17.753906 L 51.042969 17.753906 L 51.042969 16.988281 C 50.972656 11.886719 47.304688 7.199219 42.1875 5.464844 Z M 42.1875 5.464844 " clip-rule="nonzero"/></clipPath><clipPath id="d52f5724ba"><path d="M 0.484375 0.726562 L 27.042969 0.726562 L 27.042969 13.753906 L 0.484375 13.753906 Z M 0.484375 0.726562 " clip-rule="nonzero"/></clipPath><clipPath id="0e9bd9d5b0"><path d="M 18.1875 1.464844 C 16.824219 1.019531 15.277344 0.726562 13.757812 0.726562 C 12.238281 0.726562 10.777344 0.976562 9.429688 1.421875 C 9.402344 1.433594 9.375 1.433594 9.34375 1.449219 C 4.285156 3.226562 0.558594 7.914062 0.488281 12.988281 L 0.488281 13.753906 L 27.042969 13.753906 L 27.042969 12.988281 C 26.972656 7.886719 23.304688 3.199219 18.1875 1.464844 Z M 18.1875 1.464844 " clip-rule="nonzero"/></clipPath><clipPath id="3b384cc75f"><rect x="0" width="28" y="0" height="14"/></clipPath><clipPath id="8bd07aa92c"><path d="M 28.113281 1.675781 L 47.4375 1.675781 L 47.4375 14.972656 L 28.113281 14.972656 Z M 28.113281 1.675781 " clip-rule="nonzero"/></clipPath><clipPath id="9b2f3eb06b"><path d="M 26 14 L 49.964844 14 L 49.964844 23.363281 L 26 23.363281 Z M 26 14 " clip-rule="nonzero"/></clipPath><clipPath id="5be6867d7a"><path d="M 31 12.195312 L 44 12.195312 L 44 23 L 31 23 Z M 31 12.195312 " clip-rule="nonzero"/></clipPath><clipPath id="b4842ba2f1"><path d="M 0.585938 1 L 5 1 L 5 5 L 0.585938 5 Z M 0.585938 1 " clip-rule="nonzero"/></clipPath><clipPath id="d592b48ecc"><path d="M 11 0.0625 L 13 0.0625 L 13 3 L 11 3 Z M 11 0.0625 " clip-rule="nonzero"/></clipPath><clipPath id="205d9bc072"><path d="M 20 0.0625 L 23 0.0625 L 23 5 L 20 5 Z M 20 0.0625 " clip-rule="nonzero"/></clipPath><clipPath id="d0dee3c764"><path d="M 27 0.0625 L 31 0.0625 L 31 5 L 27 5 Z M 27 0.0625 " clip-rule="nonzero"/></clipPath><clipPath id="e27c603962"><path d="M 33 1 L 36.800781 1 L 36.800781 5 L 33 5 Z M 33 1 " clip-rule="nonzero"/></clipPath><clipPath id="ca7649211c"><path d="M 0.585938 1 L 5 1 L 5 5 L 0.585938 5 Z M 0.585938 1 " clip-rule="nonzero"/></clipPath><clipPath id="19655167db"><path d="M 11 0.0625 L 13 0.0625 L 13 3 L 11 3 Z M 11 0.0625 " clip-rule="nonzero"/></clipPath><clipPath id="2afa9b7897"><path d="M 20 0.0625 L 23 0.0625 L 23 5 L 20 5 Z M 20 0.0625 " clip-rule="nonzero"/></clipPath><clipPath id="4f4f98f720"><path d="M 27 0.0625 L 31 0.0625 L 31 5 L 27 5 Z M 27 0.0625 " clip-rule="nonzero"/></clipPath><clipPath id="126f68e5d8"><path d="M 33 1 L 36.800781 1 L 36.800781 5 L 33 5 Z M 33 1 " clip-rule="nonzero"/></clipPath><clipPath id="58f6c7c017"><rect x="0" width="37" y="0" height="7"/></clipPath><clipPath id="1c89ae4a36"><path d="M 0.257812 0.0195312 L 2 0.0195312 L 2 1.921875 L 0.257812 1.921875 Z M 0.257812 0.0195312 " clip-rule="nonzero"/></clipPath><clipPath id="458af76f03"><path d="M 2 0.0195312 L 4 0.0195312 L 4 1.921875 L 2 1.921875 Z M 2 0.0195312 " clip-rule="nonzero"/></clipPath><clipPath id="699c5b878e"><path d="M 3 0.0195312 L 5 0.0195312 L 5 1.921875 L 3 1.921875 Z M 3 0.0195312 " clip-rule="nonzero"/></clipPath><clipPath id="a8c8e7fba6"><path d="M 4 0.0195312 L 6 0.0195312 L 6 1.921875 L 4 1.921875 Z M 4 0.0195312 " clip-rule="nonzero"/></clipPath><clipPath id="ffd481d637"><path d="M 5 1 L 6 1 L 6 1.921875 L 5 1.921875 Z M 5 1 " clip-rule="nonzero"/></clipPath><clipPath id="4bcc8818f8"><path d="M 6 0.0195312 L 8 0.0195312 L 8 1.921875 L 6 1.921875 Z M 6 0.0195312 " clip-rule="nonzero"/></clipPath><clipPath id="11a10fc268"><path d="M 7 0.0195312 L 9 0.0195312 L 9 1.921875 L 7 1.921875 Z M 7 0.0195312 " clip-rule="nonzero"/></clipPath><clipPath id="e618e3b367"><path d="M 9 0.0195312 L 10 0.0195312 L 10 1.921875 L 9 1.921875 Z M 9 0.0195312 " clip-rule="nonzero"/></clipPath><clipPath id="8ed0d6ef5a"><path d="M 10 1 L 11 1 L 11 1.921875 L 10 1.921875 Z M 10 1 " clip-rule="nonzero"/></clipPath><clipPath id="33498ee29d"><path d="M 11 0.0195312 L 12 0.0195312 L 12 1.921875 L 11 1.921875 Z M 11 0.0195312 " clip-rule="nonzero"/></clipPath><clipPath id="bdb61f9611"><path d="M 12 0.0195312 L 13 0.0195312 L 13 1.921875 L 12 1.921875 Z M 12 0.0195312 " clip-rule="nonzero"/></clipPath><clipPath id="8aef80988d"><path d="M 13 0.0195312 L 15 0.0195312 L 15 1.921875 L 13 1.921875 Z M 13 0.0195312 " clip-rule="nonzero"/></clipPath><clipPath id="cdb16fbe08"><path d="M 14 0.0195312 L 16 0.0195312 L 16 1.921875 L 14 1.921875 Z M 14 0.0195312 " clip-rule="nonzero"/></clipPath><clipPath id="baee201c49"><path d="M 15 0.0195312 L 17 0.0195312 L 17 1.921875 L 15 1.921875 Z M 15 0.0195312 " clip-rule="nonzero"/></clipPath><clipPath id="b81e11a4a1"><path d="M 16 0.0195312 L 18 0.0195312 L 18 1.921875 L 16 1.921875 Z M 16 0.0195312 " clip-rule="nonzero"/></clipPath><clipPath id="7306020c57"><path d="M 18 0.0195312 L 20 0.0195312 L 20 1.921875 L 18 1.921875 Z M 18 0.0195312 " clip-rule="nonzero"/></clipPath><clipPath id="2979988893"><path d="M 19 0.0195312 L 21 0.0195312 L 21 1.921875 L 19 1.921875 Z M 19 0.0195312 " clip-rule="nonzero"/></clipPath><clipPath id="67ae6cb306"><path d="M 20 0.0195312 L 22 0.0195312 L 22 1.921875 L 20 1.921875 Z M 20 0.0195312 " clip-rule="nonzero"/></clipPath><clipPath id="0ac96696ed"><path d="M 22 0.0195312 L 23 0.0195312 L 23 1.921875 L 22 1.921875 Z M 22 0.0195312 " clip-rule="nonzero"/></clipPath><clipPath id="e82b25e6ce"><rect x="0" width="24" y="0" height="2"/></clipPath></defs><g clip-path="url(#b02fd16866)"><g clip-path="url(#3ebd646a37)"><g transform="matrix(1, 0, 0, 1, 23, 3)"><g clip-path="url(#cc2ab56e82)"><g clip-path="url(#cc7672200c)"><g clip-path="url(#4a630f3825)"><path fill="#ffffff" d="M 29.230469 15.660156 L 0.296875 15.660156 L 0.296875 0.484375 L 29.230469 0.484375 Z M 29.230469 15.660156 " fill-opacity="1" fill-rule="nonzero"/></g></g></g></g></g></g><g clip-path="url(#6bf82cf48c)"><g clip-path="url(#a7a61a442e)"><g transform="matrix(1, 0, 0, 1, 28, 1)"><g clip-path="url(#2b9da87fca)"><g clip-path="url(#5e8ca13af9)"><g clip-path="url(#a1b191ccbc)"><path fill="#ffffff" d="M 0.226562 0.800781 L 19.308594 0.800781 L 19.308594 11.042969 L 0.226562 11.042969 Z M 0.226562 0.800781 " fill-opacity="1" fill-rule="nonzero"/></g></g></g></g></g></g><g clip-path="url(#7681a59c56)"><g clip-path="url(#122da8eab2)"><g transform="matrix(1, 0, 0, 1, 24, 4)"><g clip-path="url(#3b384cc75f)"><g clip-path="url(#d52f5724ba)"><g clip-path="url(#0e9bd9d5b0)"><path fill="#d7874d" d="M 27.042969 13.753906 L 0.484375 13.753906 L 0.484375 0.726562 L 27.042969 0.726562 Z M 27.042969 13.753906 " fill-opacity="1" fill-rule="nonzero"/></g></g></g></g></g></g><g clip-path="url(#8bd07aa92c)"><path fill="#403229" d="M 46.109375 9.640625 C 45.585938 10.1875 44.878906 10.492188 44.121094 10.492188 C 43.523438 10.492188 42.789062 10.203125 42.691406 10.164062 C 40.296875 8.839844 37.71875 8.8125 35.976562 9.023438 C 34.671875 9.183594 33.648438 9.488281 33.121094 9.667969 L 33.121094 9.605469 L 32.707031 9.820312 C 32.289062 10.042969 31.8125 10.152344 31.335938 10.136719 C 29.910156 10.089844 28.742188 8.9375 28.679688 7.511719 C 28.644531 6.753906 28.914062 6.035156 29.4375 5.488281 C 29.964844 4.9375 30.667969 4.636719 31.425781 4.636719 C 31.878906 4.636719 32.308594 4.742188 32.707031 4.953125 L 32.949219 5.082031 L 33.085938 4.84375 C 34 3.238281 35.714844 2.238281 37.5625 2.238281 C 39.589844 2.238281 41.433594 3.433594 42.261719 5.28125 L 42.394531 5.578125 L 42.667969 5.40625 C 43.152344 5.101562 43.714844 4.960938 44.289062 4.996094 C 45.671875 5.078125 46.804688 6.226562 46.871094 7.613281 C 46.902344 8.371094 46.632812 9.09375 46.109375 9.640625 Z M 40.289062 13.953125 C 39.511719 13.746094 38.488281 13.632812 37.402344 13.632812 C 36.3125 13.632812 35.289062 13.746094 34.511719 13.953125 C 34.113281 14.058594 33.800781 14.183594 33.574219 14.328125 C 33.21875 12.429688 33.144531 10.808594 33.128906 10.261719 C 33.539062 10.113281 34.628906 9.757812 36.046875 9.585938 C 37.664062 9.386719 40.042969 9.40625 42.261719 10.574219 C 42.191406 10.992188 41.964844 12.152344 41.277344 14.359375 C 41.050781 14.203125 40.71875 14.066406 40.289062 13.953125 Z M 47.433594 7.585938 C 47.394531 6.773438 47.058594 6 46.480469 5.414062 C 45.902344 4.828125 45.136719 4.480469 44.324219 4.429688 C 43.734375 4.398438 43.160156 4.515625 42.644531 4.773438 C 41.667969 2.882812 39.707031 1.675781 37.5625 1.675781 C 35.601562 1.675781 33.773438 2.691406 32.730469 4.339844 C 32.320312 4.164062 31.875 4.074219 31.425781 4.074219 C 30.515625 4.074219 29.664062 4.4375 29.03125 5.097656 C 28.402344 5.757812 28.074219 6.625 28.117188 7.539062 C 28.191406 9.253906 29.597656 10.644531 31.316406 10.699219 C 31.746094 10.714844 32.171875 10.644531 32.570312 10.5 C 32.605469 11.28125 33.699219 14.972656 33.699219 14.972656 C 33.699219 14.933594 33.867188 14.707031 34.65625 14.496094 C 35.386719 14.304688 36.359375 14.199219 37.402344 14.199219 C 38.441406 14.199219 39.414062 14.304688 40.144531 14.496094 C 40.933594 14.707031 41.101562 14.933594 41.101562 14.972656 L 41.265625 14.972656 C 41.265625 14.972656 42.691406 11.378906 42.796875 10.804688 C 43.125 10.914062 43.648438 11.054688 44.121094 11.054688 C 45.035156 11.054688 45.886719 10.691406 46.519531 10.03125 C 47.148438 9.371094 47.476562 8.5 47.433594 7.585938 " fill-opacity="1" fill-rule="nonzero"/></g><path fill="#403229" d="M 42.707031 8.136719 C 40.308594 6.800781 37.722656 6.773438 35.976562 6.988281 C 34.09375 7.214844 32.789062 7.75 32.734375 7.773438 C 32.589844 7.832031 32.519531 7.996094 32.578125 8.140625 C 32.640625 8.285156 32.804688 8.351562 32.949219 8.292969 C 32.960938 8.289062 34.25 7.761719 36.0625 7.542969 C 37.71875 7.34375 40.171875 7.371094 42.433594 8.628906 C 42.476562 8.652344 42.523438 8.664062 42.570312 8.664062 C 42.667969 8.664062 42.765625 8.613281 42.816406 8.519531 C 42.894531 8.382812 42.84375 8.210938 42.707031 8.136719 " fill-opacity="1" fill-rule="nonzero"/><path fill="#403229" d="M 40.648438 12.402344 C 39.324219 12.019531 37.875 11.898438 36.34375 12.035156 C 36.1875 12.050781 36.074219 12.1875 36.089844 12.34375 C 36.101562 12.496094 36.238281 12.613281 36.394531 12.597656 C 37.855469 12.464844 39.234375 12.582031 40.492188 12.945312 C 40.515625 12.953125 40.542969 12.957031 40.570312 12.957031 C 40.691406 12.957031 40.804688 12.875 40.839844 12.75 C 40.882812 12.601562 40.796875 12.445312 40.648438 12.402344 " fill-opacity="1" fill-rule="nonzero"/><g clip-path="url(#9b2f3eb06b)"><path fill="#403229" d="M 49.972656 17.59375 C 49.910156 17.757812 49.753906 17.882812 49.5625 17.894531 C 49.507812 17.894531 45.410156 18.167969 41.355469 20.113281 C 40.960938 20.304688 40.679688 20.660156 40.542969 21.078125 C 40.335938 21.714844 39.640625 22.121094 38.871094 22.558594 C 37.339844 23.433594 36.519531 23.515625 35.972656 23.398438 C 35.859375 23.371094 38.726562 21.835938 38.597656 21.609375 C 38.472656 21.390625 36.710938 22.390625 35.898438 22.902344 C 35.699219 23.023438 35.441406 22.929688 35.367188 22.710938 C 35.3125 22.546875 35.378906 22.363281 35.539062 22.28125 C 36.28125 21.871094 38.179688 20.886719 38.058594 20.578125 C 37.933594 20.277344 35.285156 21.902344 35.285156 21.902344 C 35.285156 21.902344 35.085938 21.386719 35.941406 20.839844 C 37.375 19.925781 38.726562 18.933594 39.496094 19.226562 C 39.894531 19.378906 40.714844 19.4375 41.0625 19.199219 C 45.601562 16.058594 50.152344 16.175781 49.992188 17.402344 C 49.992188 17.464844 49.992188 17.535156 49.972656 17.59375 Z M 37.695312 18.238281 C 36.828125 18.386719 36.007812 18.292969 35.402344 18.027344 C 34.996094 17.847656 34.546875 17.820312 34.144531 17.992188 C 29.984375 19.734375 27.0625 22.621094 27.023438 22.664062 C 26.886719 22.800781 26.695312 22.832031 26.523438 22.773438 C 26.460938 22.75 26.394531 22.71875 26.351562 22.664062 C 25.394531 21.386719 28.730469 18.757812 33.589844 17.191406 C 34.015625 17.054688 34.300781 16.679688 34.457031 16.269531 C 34.757812 15.503906 35.777344 14.816406 37.066406 14.597656 C 38.71875 14.316406 40.199219 14.90625 40.371094 15.910156 C 40.550781 16.914062 39.347656 17.957031 37.695312 18.238281 Z M 39.539062 15.773438 C 39.277344 16.074219 39 16.324219 38.691406 16.53125 C 38.382812 16.742188 38.050781 16.886719 37.707031 16.988281 C 37.347656 17.082031 36.984375 17.152344 36.617188 17.171875 C 36.246094 17.1875 35.863281 17.171875 35.484375 17.078125 C 35.804688 17.316406 36.207031 17.425781 36.609375 17.464844 C 37.011719 17.5 37.421875 17.457031 37.8125 17.347656 C 38.207031 17.242188 38.582031 17.035156 38.882812 16.753906 C 39.175781 16.488281 39.414062 16.15625 39.539062 15.773438 Z M 39.539062 15.773438 " fill-opacity="1" fill-rule="nonzero"/></g><g clip-path="url(#5be6867d7a)"><path fill="#403229" d="M 34.648438 19.816406 C 34.648438 20.121094 34.402344 20.367188 34.097656 20.367188 C 33.789062 20.367188 33.542969 20.121094 33.542969 19.816406 C 33.542969 19.507812 33.789062 19.261719 34.097656 19.261719 C 34.402344 19.261719 34.648438 19.507812 34.648438 19.816406 Z M 42.324219 14.972656 C 41.910156 14.972656 41.574219 15.308594 41.574219 15.722656 C 41.574219 16.140625 41.910156 16.476562 42.324219 16.476562 C 42.742188 16.476562 43.074219 16.140625 43.074219 15.722656 C 43.074219 15.308594 42.734375 14.972656 42.324219 14.972656 Z M 31.664062 14.09375 C 31.386719 14.09375 31.167969 14.316406 31.167969 14.589844 C 31.167969 14.863281 31.390625 15.089844 31.664062 15.089844 C 31.945312 15.089844 32.164062 14.863281 32.164062 14.589844 C 32.164062 14.316406 31.9375 14.09375 31.664062 14.09375 Z M 40.066406 12.214844 C 39.859375 12.214844 39.6875 12.386719 39.6875 12.589844 C 39.6875 12.792969 39.859375 12.964844 40.066406 12.964844 C 40.269531 12.964844 40.441406 12.792969 40.441406 12.589844 C 40.441406 12.386719 40.269531 12.214844 40.066406 12.214844 Z M 31.910156 21.871094 C 31.773438 21.871094 31.660156 21.980469 31.660156 22.121094 C 31.660156 22.257812 31.769531 22.375 31.910156 22.375 C 32.046875 22.375 32.164062 22.265625 32.164062 22.121094 C 32.164062 21.980469 32.054688 21.871094 31.910156 21.871094 Z M 31.910156 21.871094 " fill-opacity="1" fill-rule="nonzero"/></g><g transform="matrix(1, 0, 0, 1, 19, 24)"><g clip-path="url(#58f6c7c017)"><g clip-path="url(#b4842ba2f1)"><g fill="#0071bc" fill-opacity="0.4"><g transform="translate(0.667078, 4.492197)"><g><path d="M 2.03125 0.0625 C 1.675781 0.0625 1.359375 -0.0078125 1.078125 -0.15625 C 0.796875 -0.3125 0.570312 -0.519531 0.40625 -0.78125 C 0.238281 -1.050781 0.15625 -1.351562 0.15625 -1.6875 C 0.15625 -2.019531 0.238281 -2.316406 0.40625 -2.578125 C 0.570312 -2.847656 0.796875 -3.054688 1.078125 -3.203125 C 1.359375 -3.359375 1.675781 -3.4375 2.03125 -3.4375 C 2.382812 -3.4375 2.703125 -3.359375 2.984375 -3.203125 C 3.273438 -3.054688 3.5 -2.847656 3.65625 -2.578125 C 3.820312 -2.316406 3.90625 -2.019531 3.90625 -1.6875 C 3.90625 -1.351562 3.820312 -1.050781 3.65625 -0.78125 C 3.5 -0.519531 3.273438 -0.3125 2.984375 -0.15625 C 2.703125 -0.0078125 2.382812 0.0625 2.03125 0.0625 Z M 2.03125 -0.71875 C 2.207031 -0.71875 2.363281 -0.757812 2.5 -0.84375 C 2.632812 -0.925781 2.738281 -1.039062 2.8125 -1.1875 C 2.894531 -1.332031 2.9375 -1.5 2.9375 -1.6875 C 2.9375 -1.875 2.894531 -2.039062 2.8125 -2.1875 C 2.738281 -2.332031 2.632812 -2.441406 2.5 -2.515625 C 2.363281 -2.597656 2.207031 -2.640625 2.03125 -2.640625 C 1.863281 -2.640625 1.707031 -2.597656 1.5625 -2.515625 C 1.425781 -2.441406 1.316406 -2.332031 1.234375 -2.1875 C 1.160156 -2.039062 1.125 -1.875 1.125 -1.6875 C 1.125 -1.5 1.160156 -1.332031 1.234375 -1.1875 C 1.316406 -1.039062 1.425781 -0.925781 1.5625 -0.84375 C 1.707031 -0.757812 1.863281 -0.71875 2.03125 -0.71875 Z M 2.03125 -0.71875 "/></g></g></g></g><g fill="#0071bc" fill-opacity="0.4"><g transform="translate(4.679825, 4.492197)"><g><path d="M 1.875 -3.375 C 2.175781 -3.375 2.4375 -3.320312 2.65625 -3.21875 C 2.882812 -3.113281 3.0625 -2.96875 3.1875 -2.78125 C 3.3125 -2.59375 3.375 -2.375 3.375 -2.125 C 3.375 -1.863281 3.3125 -1.640625 3.1875 -1.453125 C 3.0625 -1.273438 2.882812 -1.132812 2.65625 -1.03125 C 2.4375 -0.925781 2.175781 -0.875 1.875 -0.875 L 1.296875 -0.875 L 1.296875 0 L 0.34375 0 L 0.34375 -3.375 Z M 1.8125 -1.625 C 2.007812 -1.625 2.15625 -1.664062 2.25 -1.75 C 2.351562 -1.84375 2.40625 -1.96875 2.40625 -2.125 C 2.40625 -2.28125 2.351562 -2.398438 2.25 -2.484375 C 2.15625 -2.578125 2.007812 -2.625 1.8125 -2.625 L 1.296875 -2.625 L 1.296875 -1.625 Z M 1.8125 -1.625 "/></g></g></g><g fill="#0071bc" fill-opacity="0.4"><g transform="translate(8.168122, 4.492197)"><g><path d="M 2.140625 -1.203125 L 2.140625 0 L 1.1875 0 L 1.1875 -1.21875 L -0.09375 -3.375 L 0.90625 -3.375 L 1.703125 -2.03125 L 2.5 -3.375 L 3.4375 -3.375 Z M 2.140625 -1.203125 "/></g></g></g><g clip-path="url(#d592b48ecc)"><g fill="#0071bc" fill-opacity="0.4"><g transform="translate(11.444717, 4.492197)"><g><path d="M 0.6875 -3.609375 C 0.84375 -3.609375 0.972656 -3.554688 1.078125 -3.453125 C 1.179688 -3.359375 1.234375 -3.234375 1.234375 -3.078125 C 1.234375 -3.003906 1.222656 -2.929688 1.203125 -2.859375 C 1.179688 -2.785156 1.140625 -2.671875 1.078125 -2.515625 L 0.765625 -1.8125 L 0.1875 -1.8125 L 0.421875 -2.609375 C 0.328125 -2.648438 0.253906 -2.707031 0.203125 -2.78125 C 0.160156 -2.863281 0.140625 -2.960938 0.140625 -3.078125 C 0.140625 -3.234375 0.1875 -3.359375 0.28125 -3.453125 C 0.382812 -3.554688 0.519531 -3.609375 0.6875 -3.609375 Z M 0.6875 -3.609375 "/></g></g></g></g><g fill="#0071bc" fill-opacity="0.4"><g transform="translate(12.748622, 4.492197)"><g><path d="M 1.515625 0.0625 C 1.242188 0.0625 0.976562 0.03125 0.71875 -0.03125 C 0.46875 -0.101562 0.257812 -0.191406 0.09375 -0.296875 L 0.40625 -1 C 0.5625 -0.90625 0.738281 -0.828125 0.9375 -0.765625 C 1.132812 -0.703125 1.332031 -0.671875 1.53125 -0.671875 C 1.894531 -0.671875 2.078125 -0.765625 2.078125 -0.953125 C 2.078125 -1.046875 2.023438 -1.113281 1.921875 -1.15625 C 1.816406 -1.207031 1.648438 -1.257812 1.421875 -1.3125 C 1.160156 -1.363281 0.945312 -1.421875 0.78125 -1.484375 C 0.613281 -1.546875 0.46875 -1.644531 0.34375 -1.78125 C 0.21875 -1.925781 0.15625 -2.113281 0.15625 -2.34375 C 0.15625 -2.550781 0.210938 -2.734375 0.328125 -2.890625 C 0.441406 -3.054688 0.609375 -3.1875 0.828125 -3.28125 C 1.054688 -3.382812 1.332031 -3.4375 1.65625 -3.4375 C 1.875 -3.4375 2.085938 -3.410156 2.296875 -3.359375 C 2.515625 -3.304688 2.707031 -3.234375 2.875 -3.140625 L 2.578125 -2.4375 C 2.253906 -2.601562 1.941406 -2.6875 1.640625 -2.6875 C 1.453125 -2.6875 1.316406 -2.660156 1.234375 -2.609375 C 1.148438 -2.554688 1.109375 -2.484375 1.109375 -2.390625 C 1.109375 -2.296875 1.15625 -2.226562 1.25 -2.1875 C 1.351562 -2.144531 1.519531 -2.097656 1.75 -2.046875 C 2.007812 -1.992188 2.222656 -1.9375 2.390625 -1.875 C 2.554688 -1.8125 2.703125 -1.710938 2.828125 -1.578125 C 2.953125 -1.441406 3.015625 -1.253906 3.015625 -1.015625 C 3.015625 -0.816406 2.957031 -0.632812 2.84375 -0.46875 C 2.726562 -0.300781 2.554688 -0.171875 2.328125 -0.078125 C 2.109375 0.015625 1.835938 0.0625 1.515625 0.0625 Z M 1.515625 0.0625 "/></g></g></g><g fill="#0071bc" fill-opacity="0.4"><g transform="translate(15.803892, 4.492197)"><g/></g></g><g fill="#0071bc" fill-opacity="0.4"><g transform="translate(17.146285, 4.492197)"><g><path d="M 1.640625 -1.21875 L 1.28125 -0.84375 L 1.28125 0 L 0.34375 0 L 0.34375 -3.375 L 1.28125 -3.375 L 1.28125 -1.96875 L 2.578125 -3.375 L 3.640625 -3.375 L 2.25 -1.875 L 3.703125 0 L 2.59375 0 Z M 1.640625 -1.21875 "/></g></g></g><g clip-path="url(#205d9bc072)"><g fill="#0071bc" fill-opacity="0.4"><g transform="translate(20.706757, 4.492197)"><g><path d="M 0.296875 -2.609375 L 1.203125 -2.609375 L 1.203125 0 L 0.296875 0 Z M 0.75 -2.890625 C 0.582031 -2.890625 0.445312 -2.9375 0.34375 -3.03125 C 0.238281 -3.125 0.1875 -3.242188 0.1875 -3.390625 C 0.1875 -3.523438 0.238281 -3.640625 0.34375 -3.734375 C 0.445312 -3.828125 0.582031 -3.875 0.75 -3.875 C 0.914062 -3.875 1.046875 -3.828125 1.140625 -3.734375 C 1.242188 -3.648438 1.296875 -3.535156 1.296875 -3.390625 C 1.296875 -3.253906 1.242188 -3.132812 1.140625 -3.03125 C 1.046875 -2.9375 0.914062 -2.890625 0.75 -2.890625 Z M 0.75 -2.890625 "/></g></g></g></g><g fill="#0071bc" fill-opacity="0.4"><g transform="translate(22.155004, 4.492197)"><g><path d="M 2.09375 -0.109375 C 2.019531 -0.0546875 1.925781 -0.0195312 1.8125 0 C 1.695312 0.03125 1.578125 0.046875 1.453125 0.046875 C 1.117188 0.046875 0.859375 -0.0351562 0.671875 -0.203125 C 0.492188 -0.367188 0.40625 -0.617188 0.40625 -0.953125 L 0.40625 -1.828125 L 0.015625 -1.828125 L 0.015625 -2.515625 L 0.40625 -2.515625 L 0.40625 -3.1875 L 1.3125 -3.1875 L 1.3125 -2.515625 L 1.90625 -2.515625 L 1.90625 -1.828125 L 1.3125 -1.828125 L 1.3125 -0.96875 C 1.3125 -0.875 1.335938 -0.800781 1.390625 -0.75 C 1.441406 -0.695312 1.507812 -0.671875 1.59375 -0.671875 C 1.695312 -0.671875 1.789062 -0.695312 1.875 -0.75 Z M 2.09375 -0.109375 "/></g></g></g><g fill="#0071bc" fill-opacity="0.4"><g transform="translate(24.247987, 4.492197)"><g><path d="M 1.625 0.046875 C 1.332031 0.046875 1.070312 -0.0078125 0.84375 -0.125 C 0.625 -0.238281 0.445312 -0.398438 0.3125 -0.609375 C 0.1875 -0.816406 0.125 -1.050781 0.125 -1.3125 C 0.125 -1.570312 0.1875 -1.800781 0.3125 -2 C 0.445312 -2.207031 0.625 -2.367188 0.84375 -2.484375 C 1.070312 -2.597656 1.332031 -2.65625 1.625 -2.65625 C 1.914062 -2.65625 2.171875 -2.585938 2.390625 -2.453125 C 2.609375 -2.328125 2.757812 -2.15625 2.84375 -1.9375 L 2.140625 -1.578125 C 2.023438 -1.804688 1.851562 -1.921875 1.625 -1.921875 C 1.457031 -1.921875 1.316406 -1.863281 1.203125 -1.75 C 1.097656 -1.644531 1.046875 -1.5 1.046875 -1.3125 C 1.046875 -1.113281 1.097656 -0.957031 1.203125 -0.84375 C 1.316406 -0.738281 1.457031 -0.6875 1.625 -0.6875 C 1.851562 -0.6875 2.023438 -0.800781 2.140625 -1.03125 L 2.84375 -0.671875 C 2.757812 -0.453125 2.609375 -0.273438 2.390625 -0.140625 C 2.171875 -0.015625 1.914062 0.046875 1.625 0.046875 Z M 1.625 0.046875 "/></g></g></g><g clip-path="url(#d0dee3c764)"><g fill="#0071bc" fill-opacity="0.4"><g transform="translate(27.091555, 4.492197)"><g><path d="M 2 -2.65625 C 2.320312 -2.65625 2.582031 -2.554688 2.78125 -2.359375 C 2.976562 -2.171875 3.078125 -1.878906 3.078125 -1.484375 L 3.078125 0 L 2.15625 0 L 2.15625 -1.34375 C 2.15625 -1.695312 2.015625 -1.875 1.734375 -1.875 C 1.566406 -1.875 1.4375 -1.820312 1.34375 -1.71875 C 1.25 -1.613281 1.203125 -1.460938 1.203125 -1.265625 L 1.203125 0 L 0.296875 0 L 0.296875 -3.578125 L 1.203125 -3.578125 L 1.203125 -2.375 C 1.304688 -2.457031 1.425781 -2.523438 1.5625 -2.578125 C 1.695312 -2.628906 1.84375 -2.65625 2 -2.65625 Z M 2 -2.65625 "/></g></g></g></g><g fill="#0071bc" fill-opacity="0.4"><g transform="translate(30.382588, 4.492197)"><g><path d="M 2.953125 -1.296875 C 2.953125 -1.296875 2.945312 -1.222656 2.9375 -1.078125 L 1.046875 -1.078125 C 1.085938 -0.941406 1.160156 -0.835938 1.265625 -0.765625 C 1.378906 -0.691406 1.519531 -0.65625 1.6875 -0.65625 C 1.8125 -0.65625 1.921875 -0.671875 2.015625 -0.703125 C 2.109375 -0.742188 2.203125 -0.800781 2.296875 -0.875 L 2.765625 -0.375 C 2.515625 -0.09375 2.144531 0.046875 1.65625 0.046875 C 1.351562 0.046875 1.085938 -0.0078125 0.859375 -0.125 C 0.628906 -0.238281 0.445312 -0.398438 0.3125 -0.609375 C 0.1875 -0.816406 0.125 -1.050781 0.125 -1.3125 C 0.125 -1.5625 0.1875 -1.789062 0.3125 -2 C 0.4375 -2.207031 0.609375 -2.367188 0.828125 -2.484375 C 1.046875 -2.597656 1.289062 -2.65625 1.5625 -2.65625 C 1.820312 -2.65625 2.054688 -2.597656 2.265625 -2.484375 C 2.484375 -2.378906 2.648438 -2.222656 2.765625 -2.015625 C 2.890625 -1.816406 2.953125 -1.578125 2.953125 -1.296875 Z M 1.5625 -2 C 1.425781 -2 1.3125 -1.957031 1.21875 -1.875 C 1.125 -1.800781 1.0625 -1.691406 1.03125 -1.546875 L 2.109375 -1.546875 C 2.078125 -1.691406 2.015625 -1.800781 1.921875 -1.875 C 1.828125 -1.957031 1.707031 -2 1.5625 -2 Z M 1.5625 -2 "/></g></g></g><g clip-path="url(#e27c603962)"><g fill="#0071bc" fill-opacity="0.4"><g transform="translate(33.413802, 4.492197)"><g><path d="M 2 -2.65625 C 2.320312 -2.65625 2.582031 -2.554688 2.78125 -2.359375 C 2.976562 -2.171875 3.078125 -1.878906 3.078125 -1.484375 L 3.078125 0 L 2.15625 0 L 2.15625 -1.34375 C 2.15625 -1.695312 2.015625 -1.875 1.734375 -1.875 C 1.566406 -1.875 1.4375 -1.820312 1.34375 -1.71875 C 1.25 -1.613281 1.203125 -1.460938 1.203125 -1.265625 L 1.203125 0 L 0.296875 0 L 0.296875 -2.609375 L 1.171875 -2.609375 L 1.171875 -2.328125 C 1.265625 -2.429688 1.378906 -2.507812 1.515625 -2.5625 C 1.660156 -2.625 1.820312 -2.65625 2 -2.65625 Z M 2 -2.65625 "/></g></g></g></g><g clip-path="url(#ca7649211c)"><g fill="#ffffff" fill-opacity="1"><g transform="translate(0.667078, 4.492197)"><g><path d="M 2.03125 0.0625 C 1.675781 0.0625 1.359375 -0.0078125 1.078125 -0.15625 C 0.796875 -0.3125 0.570312 -0.519531 0.40625 -0.78125 C 0.238281 -1.050781 0.15625 -1.351562 0.15625 -1.6875 C 0.15625 -2.019531 0.238281 -2.316406 0.40625 -2.578125 C 0.570312 -2.847656 0.796875 -3.054688 1.078125 -3.203125 C 1.359375 -3.359375 1.675781 -3.4375 2.03125 -3.4375 C 2.382812 -3.4375 2.703125 -3.359375 2.984375 -3.203125 C 3.273438 -3.054688 3.5 -2.847656 3.65625 -2.578125 C 3.820312 -2.316406 3.90625 -2.019531 3.90625 -1.6875 C 3.90625 -1.351562 3.820312 -1.050781 3.65625 -0.78125 C 3.5 -0.519531 3.273438 -0.3125 2.984375 -0.15625 C 2.703125 -0.0078125 2.382812 0.0625 2.03125 0.0625 Z M 2.03125 -0.71875 C 2.207031 -0.71875 2.363281 -0.757812 2.5 -0.84375 C 2.632812 -0.925781 2.738281 -1.039062 2.8125 -1.1875 C 2.894531 -1.332031 2.9375 -1.5 2.9375 -1.6875 C 2.9375 -1.875 2.894531 -2.039062 2.8125 -2.1875 C 2.738281 -2.332031 2.632812 -2.441406 2.5 -2.515625 C 2.363281 -2.597656 2.207031 -2.640625 2.03125 -2.640625 C 1.863281 -2.640625 1.707031 -2.597656 1.5625 -2.515625 C 1.425781 -2.441406 1.316406 -2.332031 1.234375 -2.1875 C 1.160156 -2.039062 1.125 -1.875 1.125 -1.6875 C 1.125 -1.5 1.160156 -1.332031 1.234375 -1.1875 C 1.316406 -1.039062 1.425781 -0.925781 1.5625 -0.84375 C 1.707031 -0.757812 1.863281 -0.71875 2.03125 -0.71875 Z M 2.03125 -0.71875 "/></g></g></g></g><g fill="#ffffff" fill-opacity="1"><g transform="translate(4.679825, 4.492197)"><g><path d="M 1.875 -3.375 C 2.175781 -3.375 2.4375 -3.320312 2.65625 -3.21875 C 2.882812 -3.113281 3.0625 -2.96875 3.1875 -2.78125 C 3.3125 -2.59375 3.375 -2.375 3.375 -2.125 C 3.375 -1.863281 3.3125 -1.640625 3.1875 -1.453125 C 3.0625 -1.273438 2.882812 -1.132812 2.65625 -1.03125 C 2.4375 -0.925781 2.175781 -0.875 1.875 -0.875 L 1.296875 -0.875 L 1.296875 0 L 0.34375 0 L 0.34375 -3.375 Z M 1.8125 -1.625 C 2.007812 -1.625 2.15625 -1.664062 2.25 -1.75 C 2.351562 -1.84375 2.40625 -1.96875 2.40625 -2.125 C 2.40625 -2.28125 2.351562 -2.398438 2.25 -2.484375 C 2.15625 -2.578125 2.007812 -2.625 1.8125 -2.625 L 1.296875 -2.625 L 1.296875 -1.625 Z M 1.8125 -1.625 "/></g></g></g><g fill="#ffffff" fill-opacity="1"><g transform="translate(8.168122, 4.492197)"><g><path d="M 2.140625 -1.203125 L 2.140625 0 L 1.1875 0 L 1.1875 -1.21875 L -0.09375 -3.375 L 0.90625 -3.375 L 1.703125 -2.03125 L 2.5 -3.375 L 3.4375 -3.375 Z M 2.140625 -1.203125 "/></g></g></g><g clip-path="url(#19655167db)"><g fill="#ffffff" fill-opacity="1"><g transform="translate(11.444717, 4.492197)"><g><path d="M 0.6875 -3.609375 C 0.84375 -3.609375 0.972656 -3.554688 1.078125 -3.453125 C 1.179688 -3.359375 1.234375 -3.234375 1.234375 -3.078125 C 1.234375 -3.003906 1.222656 -2.929688 1.203125 -2.859375 C 1.179688 -2.785156 1.140625 -2.671875 1.078125 -2.515625 L 0.765625 -1.8125 L 0.1875 -1.8125 L 0.421875 -2.609375 C 0.328125 -2.648438 0.253906 -2.707031 0.203125 -2.78125 C 0.160156 -2.863281 0.140625 -2.960938 0.140625 -3.078125 C 0.140625 -3.234375 0.1875 -3.359375 0.28125 -3.453125 C 0.382812 -3.554688 0.519531 -3.609375 0.6875 -3.609375 Z M 0.6875 -3.609375 "/></g></g></g></g><g fill="#ffffff" fill-opacity="1"><g transform="translate(12.748622, 4.492197)"><g><path d="M 1.515625 0.0625 C 1.242188 0.0625 0.976562 0.03125 0.71875 -0.03125 C 0.46875 -0.101562 0.257812 -0.191406 0.09375 -0.296875 L 0.40625 -1 C 0.5625 -0.90625 0.738281 -0.828125 0.9375 -0.765625 C 1.132812 -0.703125 1.332031 -0.671875 1.53125 -0.671875 C 1.894531 -0.671875 2.078125 -0.765625 2.078125 -0.953125 C 2.078125 -1.046875 2.023438 -1.113281 1.921875 -1.15625 C 1.816406 -1.207031 1.648438 -1.257812 1.421875 -1.3125 C 1.160156 -1.363281 0.945312 -1.421875 0.78125 -1.484375 C 0.613281 -1.546875 0.46875 -1.644531 0.34375 -1.78125 C 0.21875 -1.925781 0.15625 -2.113281 0.15625 -2.34375 C 0.15625 -2.550781 0.210938 -2.734375 0.328125 -2.890625 C 0.441406 -3.054688 0.609375 -3.1875 0.828125 -3.28125 C 1.054688 -3.382812 1.332031 -3.4375 1.65625 -3.4375 C 1.875 -3.4375 2.085938 -3.410156 2.296875 -3.359375 C 2.515625 -3.304688 2.707031 -3.234375 2.875 -3.140625 L 2.578125 -2.4375 C 2.253906 -2.601562 1.941406 -2.6875 1.640625 -2.6875 C 1.453125 -2.6875 1.316406 -2.660156 1.234375 -2.609375 C 1.148438 -2.554688 1.109375 -2.484375 1.109375 -2.390625 C 1.109375 -2.296875 1.15625 -2.226562 1.25 -2.1875 C 1.351562 -2.144531 1.519531 -2.097656 1.75 -2.046875 C 2.007812 -1.992188 2.222656 -1.9375 2.390625 -1.875 C 2.554688 -1.8125 2.703125 -1.710938 2.828125 -1.578125 C 2.953125 -1.441406 3.015625 -1.253906 3.015625 -1.015625 C 3.015625 -0.816406 2.957031 -0.632812 2.84375 -0.46875 C 2.726562 -0.300781 2.554688 -0.171875 2.328125 -0.078125 C 2.109375 0.015625 1.835938 0.0625 1.515625 0.0625 Z M 1.515625 0.0625 "/></g></g></g><g fill="#ffffff" fill-opacity="1"><g transform="translate(15.803892, 4.492197)"><g/></g></g><g fill="#ffffff" fill-opacity="1"><g transform="translate(17.146285, 4.492197)"><g><path d="M 1.640625 -1.21875 L 1.28125 -0.84375 L 1.28125 0 L 0.34375 0 L 0.34375 -3.375 L 1.28125 -3.375 L 1.28125 -1.96875 L 2.578125 -3.375 L 3.640625 -3.375 L 2.25 -1.875 L 3.703125 0 L 2.59375 0 Z M 1.640625 -1.21875 "/></g></g></g><g clip-path="url(#2afa9b7897)"><g fill="#ffffff" fill-opacity="1"><g transform="translate(20.706757, 4.492197)"><g><path d="M 0.296875 -2.609375 L 1.203125 -2.609375 L 1.203125 0 L 0.296875 0 Z M 0.75 -2.890625 C 0.582031 -2.890625 0.445312 -2.9375 0.34375 -3.03125 C 0.238281 -3.125 0.1875 -3.242188 0.1875 -3.390625 C 0.1875 -3.523438 0.238281 -3.640625 0.34375 -3.734375 C 0.445312 -3.828125 0.582031 -3.875 0.75 -3.875 C 0.914062 -3.875 1.046875 -3.828125 1.140625 -3.734375 C 1.242188 -3.648438 1.296875 -3.535156 1.296875 -3.390625 C 1.296875 -3.253906 1.242188 -3.132812 1.140625 -3.03125 C 1.046875 -2.9375 0.914062 -2.890625 0.75 -2.890625 Z M 0.75 -2.890625 "/></g></g></g></g><g fill="#ffffff" fill-opacity="1"><g transform="translate(22.155004, 4.492197)"><g><path d="M 2.09375 -0.109375 C 2.019531 -0.0546875 1.925781 -0.0195312 1.8125 0 C 1.695312 0.03125 1.578125 0.046875 1.453125 0.046875 C 1.117188 0.046875 0.859375 -0.0351562 0.671875 -0.203125 C 0.492188 -0.367188 0.40625 -0.617188 0.40625 -0.953125 L 0.40625 -1.828125 L 0.015625 -1.828125 L 0.015625 -2.515625 L 0.40625 -2.515625 L 0.40625 -3.1875 L 1.3125 -3.1875 L 1.3125 -2.515625 L 1.90625 -2.515625 L 1.90625 -1.828125 L 1.3125 -1.828125 L 1.3125 -0.96875 C 1.3125 -0.875 1.335938 -0.800781 1.390625 -0.75 C 1.441406 -0.695312 1.507812 -0.671875 1.59375 -0.671875 C 1.695312 -0.671875 1.789062 -0.695312 1.875 -0.75 Z M 2.09375 -0.109375 "/></g></g></g><g fill="#ffffff" fill-opacity="1"><g transform="translate(24.247987, 4.492197)"><g><path d="M 1.625 0.046875 C 1.332031 0.046875 1.070312 -0.0078125 0.84375 -0.125 C 0.625 -0.238281 0.445312 -0.398438 0.3125 -0.609375 C 0.1875 -0.816406 0.125 -1.050781 0.125 -1.3125 C 0.125 -1.570312 0.1875 -1.800781 0.3125 -2 C 0.445312 -2.207031 0.625 -2.367188 0.84375 -2.484375 C 1.070312 -2.597656 1.332031 -2.65625 1.625 -2.65625 C 1.914062 -2.65625 2.171875 -2.585938 2.390625 -2.453125 C 2.609375 -2.328125 2.757812 -2.15625 2.84375 -1.9375 L 2.140625 -1.578125 C 2.023438 -1.804688 1.851562 -1.921875 1.625 -1.921875 C 1.457031 -1.921875 1.316406 -1.863281 1.203125 -1.75 C 1.097656 -1.644531 1.046875 -1.5 1.046875 -1.3125 C 1.046875 -1.113281 1.097656 -0.957031 1.203125 -0.84375 C 1.316406 -0.738281 1.457031 -0.6875 1.625 -0.6875 C 1.851562 -0.6875 2.023438 -0.800781 2.140625 -1.03125 L 2.84375 -0.671875 C 2.757812 -0.453125 2.609375 -0.273438 2.390625 -0.140625 C 2.171875 -0.015625 1.914062 0.046875 1.625 0.046875 Z M 1.625 0.046875 "/></g></g></g><g clip-path="url(#4f4f98f720)"><g fill="#ffffff" fill-opacity="1"><g transform="translate(27.091555, 4.492197)"><g><path d="M 2 -2.65625 C 2.320312 -2.65625 2.582031 -2.554688 2.78125 -2.359375 C 2.976562 -2.171875 3.078125 -1.878906 3.078125 -1.484375 L 3.078125 0 L 2.15625 0 L 2.15625 -1.34375 C 2.15625 -1.695312 2.015625 -1.875 1.734375 -1.875 C 1.566406 -1.875 1.4375 -1.820312 1.34375 -1.71875 C 1.25 -1.613281 1.203125 -1.460938 1.203125 -1.265625 L 1.203125 0 L 0.296875 0 L 0.296875 -3.578125 L 1.203125 -3.578125 L 1.203125 -2.375 C 1.304688 -2.457031 1.425781 -2.523438 1.5625 -2.578125 C 1.695312 -2.628906 1.84375 -2.65625 2 -2.65625 Z M 2 -2.65625 "/></g></g></g></g><g fill="#ffffff" fill-opacity="1"><g transform="translate(30.382588, 4.492197)"><g><path d="M 2.953125 -1.296875 C 2.953125 -1.296875 2.945312 -1.222656 2.9375 -1.078125 L 1.046875 -1.078125 C 1.085938 -0.941406 1.160156 -0.835938 1.265625 -0.765625 C 1.378906 -0.691406 1.519531 -0.65625 1.6875 -0.65625 C 1.8125 -0.65625 1.921875 -0.671875 2.015625 -0.703125 C 2.109375 -0.742188 2.203125 -0.800781 2.296875 -0.875 L 2.765625 -0.375 C 2.515625 -0.09375 2.144531 0.046875 1.65625 0.046875 C 1.351562 0.046875 1.085938 -0.0078125 0.859375 -0.125 C 0.628906 -0.238281 0.445312 -0.398438 0.3125 -0.609375 C 0.1875 -0.816406 0.125 -1.050781 0.125 -1.3125 C 0.125 -1.5625 0.1875 -1.789062 0.3125 -2 C 0.4375 -2.207031 0.609375 -2.367188 0.828125 -2.484375 C 1.046875 -2.597656 1.289062 -2.65625 1.5625 -2.65625 C 1.820312 -2.65625 2.054688 -2.597656 2.265625 -2.484375 C 2.484375 -2.378906 2.648438 -2.222656 2.765625 -2.015625 C 2.890625 -1.816406 2.953125 -1.578125 2.953125 -1.296875 Z M 1.5625 -2 C 1.425781 -2 1.3125 -1.957031 1.21875 -1.875 C 1.125 -1.800781 1.0625 -1.691406 1.03125 -1.546875 L 2.109375 -1.546875 C 2.078125 -1.691406 2.015625 -1.800781 1.921875 -1.875 C 1.828125 -1.957031 1.707031 -2 1.5625 -2 Z M 1.5625 -2 "/></g></g></g><g clip-path="url(#126f68e5d8)"><g fill="#ffffff" fill-opacity="1"><g transform="translate(33.413802, 4.492197)"><g><path d="M 2 -2.65625 C 2.320312 -2.65625 2.582031 -2.554688 2.78125 -2.359375 C 2.976562 -2.171875 3.078125 -1.878906 3.078125 -1.484375 L 3.078125 0 L 2.15625 0 L 2.15625 -1.34375 C 2.15625 -1.695312 2.015625 -1.875 1.734375 -1.875 C 1.566406 -1.875 1.4375 -1.820312 1.34375 -1.71875 C 1.25 -1.613281 1.203125 -1.460938 1.203125 -1.265625 L 1.203125 0 L 0.296875 0 L 0.296875 -2.609375 L 1.171875 -2.609375 L 1.171875 -2.328125 C 1.265625 -2.429688 1.378906 -2.507812 1.515625 -2.5625 C 1.660156 -2.625 1.820312 -2.65625 2 -2.65625 Z M 2 -2.65625 "/></g></g></g></g></g></g><g transform="matrix(1, 0, 0, 1, 26, 30)"><g clip-path="url(#e82b25e6ce)"><g clip-path="url(#1c89ae4a36)"><g fill="#ffffff" fill-opacity="1"><g transform="translate(0.558746, 1.272095)"><g><path d="M 0.640625 0.015625 C 0.566406 0.015625 0.492188 0 0.421875 -0.03125 C 0.359375 -0.0625 0.300781 -0.101562 0.25 -0.15625 C 0.195312 -0.207031 0.15625 -0.265625 0.125 -0.328125 C 0.09375 -0.398438 0.078125 -0.472656 0.078125 -0.546875 C 0.078125 -0.628906 0.09375 -0.703125 0.125 -0.765625 C 0.15625 -0.835938 0.195312 -0.898438 0.25 -0.953125 C 0.300781 -1.003906 0.359375 -1.039062 0.421875 -1.0625 C 0.492188 -1.09375 0.566406 -1.109375 0.640625 -1.109375 C 0.753906 -1.109375 0.851562 -1.082031 0.9375 -1.03125 C 1.019531 -0.976562 1.085938 -0.910156 1.140625 -0.828125 L 0.984375 -0.734375 C 0.953125 -0.796875 0.90625 -0.84375 0.84375 -0.875 C 0.78125 -0.914062 0.710938 -0.9375 0.640625 -0.9375 C 0.566406 -0.9375 0.5 -0.914062 0.4375 -0.875 C 0.382812 -0.84375 0.335938 -0.796875 0.296875 -0.734375 C 0.265625 -0.679688 0.25 -0.617188 0.25 -0.546875 C 0.25 -0.472656 0.265625 -0.40625 0.296875 -0.34375 C 0.335938 -0.289062 0.382812 -0.242188 0.4375 -0.203125 C 0.5 -0.171875 0.566406 -0.15625 0.640625 -0.15625 C 0.710938 -0.15625 0.78125 -0.175781 0.84375 -0.21875 C 0.90625 -0.257812 0.953125 -0.304688 0.984375 -0.359375 L 1.140625 -0.28125 C 1.085938 -0.195312 1.019531 -0.125 0.9375 -0.0625 C 0.851562 -0.0078125 0.753906 0.015625 0.640625 0.015625 Z M 0.640625 0.015625 "/></g></g></g></g><g clip-path="url(#458af76f03)"><g fill="#ffffff" fill-opacity="1"><g transform="translate(2.028781, 1.272095)"><g><path d="M 0.796875 0 L 0.703125 -0.234375 L 0.265625 -0.234375 L 0.1875 0 L -0.015625 0 L 0.390625 -1.09375 L 0.578125 -1.09375 L 0.984375 0 Z M 0.3125 -0.390625 L 0.65625 -0.390625 L 0.484375 -0.90625 Z M 0.3125 -0.390625 "/></g></g></g></g><g clip-path="url(#699c5b878e)"><g fill="#ffffff" fill-opacity="1"><g transform="translate(3.276614, 1.272095)"><g><path d="M 0.765625 -0.9375 L 0.3125 -0.9375 L 0.3125 -0.640625 L 0.703125 -0.640625 L 0.703125 -0.46875 L 0.3125 -0.46875 L 0.3125 0 L 0.125 0 L 0.125 -1.09375 L 0.765625 -1.09375 Z M 0.765625 -0.9375 "/></g></g></g></g><g clip-path="url(#a8c8e7fba6)"><g fill="#ffffff" fill-opacity="1"><g transform="translate(4.338973, 1.272095)"><g><path d="M 0.765625 -0.9375 L 0.3125 -0.9375 L 0.3125 -0.640625 L 0.703125 -0.640625 L 0.703125 -0.46875 L 0.3125 -0.46875 L 0.3125 -0.15625 L 0.765625 -0.15625 L 0.765625 0 L 0.125 0 L 0.125 -1.09375 L 0.765625 -1.09375 Z M 0.765625 -0.9375 "/></g></g></g></g><g clip-path="url(#ffd481d637)"><g fill="#ffffff" fill-opacity="1"><g transform="translate(5.471115, 1.272095)"><g/></g></g></g><g clip-path="url(#4bcc8818f8)"><g fill="#ffffff" fill-opacity="1"><g transform="translate(6.188236, 1.272095)"><g><path d="M 0.796875 0 L 0.703125 -0.234375 L 0.265625 -0.234375 L 0.1875 0 L -0.015625 0 L 0.390625 -1.09375 L 0.578125 -1.09375 L 0.984375 0 Z M 0.3125 -0.390625 L 0.65625 -0.390625 L 0.484375 -0.90625 Z M 0.3125 -0.390625 "/></g></g></g></g><g clip-path="url(#11a10fc268)"><g fill="#ffffff" fill-opacity="1"><g transform="translate(7.436069, 1.272095)"><g><path d="M 0.90625 -1.09375 L 1.09375 -1.09375 L 1.09375 0 L 0.90625 0 L 0.296875 -0.8125 L 0.296875 0 L 0.125 0 L 0.125 -1.09375 L 0.296875 -1.09375 L 0.90625 -0.28125 Z M 0.90625 -1.09375 "/></g></g></g></g><g clip-path="url(#e618e3b367)"><g fill="#ffffff" fill-opacity="1"><g transform="translate(8.924469, 1.272095)"><g><path d="M 0.125 0 L 0.125 -1.09375 L 0.453125 -1.09375 C 0.523438 -1.09375 0.59375 -1.078125 0.65625 -1.046875 C 0.726562 -1.023438 0.789062 -0.988281 0.84375 -0.9375 C 0.894531 -0.882812 0.929688 -0.828125 0.953125 -0.765625 C 0.984375 -0.703125 1 -0.628906 1 -0.546875 C 1 -0.472656 0.984375 -0.398438 0.953125 -0.328125 C 0.929688 -0.265625 0.894531 -0.207031 0.84375 -0.15625 C 0.789062 -0.113281 0.726562 -0.078125 0.65625 -0.046875 C 0.59375 -0.015625 0.523438 0 0.453125 0 Z M 0.296875 -0.171875 L 0.453125 -0.171875 C 0.523438 -0.171875 0.585938 -0.1875 0.640625 -0.21875 C 0.691406 -0.25 0.734375 -0.289062 0.765625 -0.34375 C 0.804688 -0.40625 0.828125 -0.472656 0.828125 -0.546875 C 0.828125 -0.617188 0.804688 -0.679688 0.765625 -0.734375 C 0.734375 -0.796875 0.691406 -0.84375 0.640625 -0.875 C 0.585938 -0.914062 0.523438 -0.9375 0.453125 -0.9375 L 0.296875 -0.9375 Z M 0.296875 -0.171875 "/></g></g></g></g><g clip-path="url(#8ed0d6ef5a)"><g fill="#ffffff" fill-opacity="1"><g transform="translate(10.282485, 1.272095)"><g/></g></g></g><g clip-path="url(#33498ee29d)"><g fill="#ffffff" fill-opacity="1"><g transform="translate(10.999605, 1.272095)"><g><path d="M 0.625 -0.484375 L 0.953125 0 L 0.75 0 L 0.453125 -0.46875 L 0.296875 -0.46875 L 0.296875 0 L 0.125 0 L 0.125 -1.09375 L 0.546875 -1.09375 C 0.609375 -1.09375 0.660156 -1.078125 0.703125 -1.046875 C 0.753906 -1.023438 0.796875 -0.988281 0.828125 -0.9375 C 0.859375 -0.894531 0.875 -0.84375 0.875 -0.78125 C 0.875 -0.707031 0.847656 -0.640625 0.796875 -0.578125 C 0.753906 -0.523438 0.695312 -0.492188 0.625 -0.484375 Z M 0.296875 -0.625 L 0.53125 -0.625 C 0.570312 -0.625 0.609375 -0.632812 0.640625 -0.65625 C 0.671875 -0.6875 0.6875 -0.726562 0.6875 -0.78125 C 0.6875 -0.820312 0.671875 -0.859375 0.640625 -0.890625 C 0.609375 -0.921875 0.570312 -0.9375 0.53125 -0.9375 L 0.296875 -0.9375 Z M 0.296875 -0.625 "/></g></g></g></g><g clip-path="url(#bdb61f9611)"><g fill="#ffffff" fill-opacity="1"><g transform="translate(12.227239, 1.272095)"><g><path d="M 0.765625 -0.9375 L 0.3125 -0.9375 L 0.3125 -0.640625 L 0.703125 -0.640625 L 0.703125 -0.46875 L 0.3125 -0.46875 L 0.3125 -0.15625 L 0.765625 -0.15625 L 0.765625 0 L 0.125 0 L 0.125 -1.09375 L 0.765625 -1.09375 Z M 0.765625 -0.9375 "/></g></g></g></g><g clip-path="url(#8aef80988d)"><g fill="#ffffff" fill-opacity="1"><g transform="translate(13.359381, 1.272095)"><g><path d="M 0.421875 0.015625 C 0.335938 0.015625 0.257812 -0.00390625 0.1875 -0.046875 C 0.125 -0.0976562 0.078125 -0.15625 0.046875 -0.21875 L 0.1875 -0.3125 C 0.207031 -0.269531 0.238281 -0.234375 0.28125 -0.203125 C 0.320312 -0.171875 0.367188 -0.15625 0.421875 -0.15625 C 0.472656 -0.15625 0.515625 -0.164062 0.546875 -0.1875 C 0.585938 -0.21875 0.609375 -0.253906 0.609375 -0.296875 C 0.609375 -0.335938 0.59375 -0.367188 0.5625 -0.390625 C 0.539062 -0.421875 0.507812 -0.441406 0.46875 -0.453125 C 0.425781 -0.472656 0.382812 -0.488281 0.34375 -0.5 C 0.300781 -0.519531 0.257812 -0.539062 0.21875 -0.5625 C 0.175781 -0.59375 0.144531 -0.625 0.125 -0.65625 C 0.101562 -0.695312 0.09375 -0.75 0.09375 -0.8125 C 0.09375 -0.875 0.101562 -0.925781 0.125 -0.96875 C 0.15625 -1.019531 0.195312 -1.054688 0.25 -1.078125 C 0.300781 -1.097656 0.359375 -1.109375 0.421875 -1.109375 C 0.484375 -1.109375 0.539062 -1.09375 0.59375 -1.0625 C 0.644531 -1.039062 0.691406 -1.007812 0.734375 -0.96875 L 0.609375 -0.859375 C 0.554688 -0.921875 0.492188 -0.953125 0.421875 -0.953125 C 0.378906 -0.953125 0.34375 -0.941406 0.3125 -0.921875 C 0.28125 -0.898438 0.265625 -0.867188 0.265625 -0.828125 C 0.265625 -0.785156 0.273438 -0.753906 0.296875 -0.734375 C 0.328125 -0.710938 0.359375 -0.691406 0.390625 -0.671875 C 0.429688 -0.660156 0.472656 -0.644531 0.515625 -0.625 C 0.566406 -0.601562 0.613281 -0.578125 0.65625 -0.546875 C 0.695312 -0.523438 0.726562 -0.492188 0.75 -0.453125 C 0.769531 -0.410156 0.78125 -0.359375 0.78125 -0.296875 C 0.78125 -0.234375 0.765625 -0.175781 0.734375 -0.125 C 0.703125 -0.0820312 0.660156 -0.046875 0.609375 -0.015625 C 0.554688 0.00390625 0.492188 0.015625 0.421875 0.015625 Z M 0.421875 0.015625 "/></g></g></g></g><g clip-path="url(#cdb16fbe08)"><g fill="#ffffff" fill-opacity="1"><g transform="translate(14.469486, 1.272095)"><g><path d="M 0.765625 -1.09375 L 0.765625 -0.9375 L 0.46875 -0.9375 L 0.46875 0 L 0.296875 0 L 0.296875 -0.9375 L 0 -0.9375 L 0 -1.09375 Z M 0.765625 -1.09375 "/></g></g></g></g><g clip-path="url(#baee201c49)"><g fill="#ffffff" fill-opacity="1"><g transform="translate(15.515317, 1.272095)"><g><path d="M 0.796875 0 L 0.703125 -0.234375 L 0.265625 -0.234375 L 0.1875 0 L -0.015625 0 L 0.390625 -1.09375 L 0.578125 -1.09375 L 0.984375 0 Z M 0.3125 -0.390625 L 0.65625 -0.390625 L 0.484375 -0.90625 Z M 0.3125 -0.390625 "/></g></g></g></g><g clip-path="url(#b81e11a4a1)"><g fill="#ffffff" fill-opacity="1"><g transform="translate(16.763151, 1.272095)"><g><path d="M 0.546875 0.015625 C 0.460938 0.015625 0.390625 0 0.328125 -0.03125 C 0.265625 -0.0625 0.210938 -0.101562 0.171875 -0.15625 C 0.128906 -0.21875 0.109375 -0.285156 0.109375 -0.359375 L 0.109375 -1.09375 L 0.296875 -1.09375 L 0.296875 -0.390625 C 0.296875 -0.316406 0.316406 -0.257812 0.359375 -0.21875 C 0.410156 -0.175781 0.472656 -0.15625 0.546875 -0.15625 C 0.617188 -0.15625 0.679688 -0.175781 0.734375 -0.21875 C 0.785156 -0.257812 0.8125 -0.316406 0.8125 -0.390625 L 0.8125 -1.09375 L 0.984375 -1.09375 L 0.984375 -0.359375 C 0.984375 -0.285156 0.960938 -0.21875 0.921875 -0.15625 C 0.890625 -0.101562 0.835938 -0.0625 0.765625 -0.03125 C 0.703125 0 0.628906 0.015625 0.546875 0.015625 Z M 0.546875 0.015625 "/></g></g></g></g><g clip-path="url(#7306020c57)"><g fill="#ffffff" fill-opacity="1"><g transform="translate(18.143204, 1.272095)"><g><path d="M 0.625 -0.484375 L 0.953125 0 L 0.75 0 L 0.453125 -0.46875 L 0.296875 -0.46875 L 0.296875 0 L 0.125 0 L 0.125 -1.09375 L 0.546875 -1.09375 C 0.609375 -1.09375 0.660156 -1.078125 0.703125 -1.046875 C 0.753906 -1.023438 0.796875 -0.988281 0.828125 -0.9375 C 0.859375 -0.894531 0.875 -0.84375 0.875 -0.78125 C 0.875 -0.707031 0.847656 -0.640625 0.796875 -0.578125 C 0.753906 -0.523438 0.695312 -0.492188 0.625 -0.484375 Z M 0.296875 -0.625 L 0.53125 -0.625 C 0.570312 -0.625 0.609375 -0.632812 0.640625 -0.65625 C 0.671875 -0.6875 0.6875 -0.726562 0.6875 -0.78125 C 0.6875 -0.820312 0.671875 -0.859375 0.640625 -0.890625 C 0.609375 -0.921875 0.570312 -0.9375 0.53125 -0.9375 L 0.296875 -0.9375 Z M 0.296875 -0.625 "/></g></g></g></g><g clip-path="url(#2979988893)"><g fill="#ffffff" fill-opacity="1"><g transform="translate(19.370838, 1.272095)"><g><path d="M 0.796875 0 L 0.703125 -0.234375 L 0.265625 -0.234375 L 0.1875 0 L -0.015625 0 L 0.390625 -1.09375 L 0.578125 -1.09375 L 0.984375 0 Z M 0.3125 -0.390625 L 0.65625 -0.390625 L 0.484375 -0.90625 Z M 0.3125 -0.390625 "/></g></g></g></g><g clip-path="url(#67ae6cb306)"><g fill="#ffffff" fill-opacity="1"><g transform="translate(20.618671, 1.272095)"><g><path d="M 0.90625 -1.09375 L 1.09375 -1.09375 L 1.09375 0 L 0.90625 0 L 0.296875 -0.8125 L 0.296875 0 L 0.125 0 L 0.125 -1.09375 L 0.296875 -1.09375 L 0.90625 -0.28125 Z M 0.90625 -1.09375 "/></g></g></g></g><g clip-path="url(#0ac96696ed)"><g fill="#ffffff" fill-opacity="1"><g transform="translate(22.107071, 1.272095)"><g><path d="M 0.765625 -1.09375 L 0.765625 -0.9375 L 0.46875 -0.9375 L 0.46875 0 L 0.296875 0 L 0.296875 -0.9375 L 0 -0.9375 L 0 -1.09375 Z M 0.765625 -1.09375 "/></g></g></g></g></g></g><g fill="#ffffff" fill-opacity="1"><g transform="translate(63.384879, 24.568011)"><g><path d="M 31.078125 0 L 23.203125 0 L 21.46875 -3.03125 L 9.796875 -3.03125 L 8.0625 0 L 0.1875 0 L 12.03125 -18.484375 L 19.234375 -18.484375 Z M 18.84375 -7.609375 L 15.640625 -13.21875 L 12.421875 -7.609375 Z M 18.84375 -7.609375 "/></g></g></g><g fill="#ffffff" fill-opacity="1"><g transform="translate(94.637933, 24.568011)"><g><path d="M 14.4375 0 L 2.0625 0 L 2.0625 -18.5 L 14.4375 -18.5 C 19.5 -18.5 23.140625 -17.789062 25.359375 -16.375 C 27.148438 -15.226562 28.171875 -13.671875 28.421875 -11.703125 C 28.523438 -10.859375 28.578125 -10.039062 28.578125 -9.25 C 28.578125 -8.46875 28.523438 -7.644531 28.421875 -6.78125 C 28.316406 -5.925781 28.03125 -5.097656 27.5625 -4.296875 C 27.101562 -3.492188 26.367188 -2.769531 25.359375 -2.125 C 24.347656 -1.476562 22.960938 -0.960938 21.203125 -0.578125 C 19.441406 -0.191406 17.1875 0 14.4375 0 Z M 13.703125 -4.578125 C 17.648438 -4.578125 19.878906 -5.570312 20.390625 -7.5625 C 20.535156 -8.125 20.609375 -8.6875 20.609375 -9.25 C 20.609375 -9.8125 20.535156 -10.367188 20.390625 -10.921875 C 20.242188 -11.484375 19.941406 -11.988281 19.484375 -12.4375 C 19.023438 -12.882812 18.335938 -13.242188 17.421875 -13.515625 C 16.503906 -13.785156 15.265625 -13.921875 13.703125 -13.921875 L 9.828125 -13.921875 L 9.828125 -4.578125 Z M 13.703125 -4.578125 "/></g></g></g><g fill="#ffffff" fill-opacity="1"><g transform="translate(124.241343, 24.568011)"><g><path d="M 37.234375 0 L 29.46875 0 L 29.46875 -11.796875 L 22.53125 0 L 16.75 0 L 9.828125 -11.796875 L 9.828125 0 L 2.0625 0 L 2.0625 -18.5 L 11.28125 -18.5 L 19.65625 -5.28125 L 28 -18.5 L 37.234375 -18.5 Z M 37.234375 0 "/></g></g></g><g fill="#ffffff" fill-opacity="1"><g transform="translate(163.523525, 24.568011)"><g><path d="M 9.828125 0 L 2.0625 0 L 2.0625 -18.5 L 9.828125 -18.5 Z M 9.828125 0 "/></g></g></g><g fill="#ffffff" fill-opacity="1"><g transform="translate(175.406128, 24.568011)"><g><path d="M 29.515625 0 L 20.28125 0 L 9.828125 -12.515625 L 9.828125 0 L 2.0625 0 L 2.0625 -18.5 L 11.296875 -18.5 L 21.75 -6.046875 L 21.75 -18.5 L 29.515625 -18.5 Z M 29.515625 0 "/></g></g></g></svg>